<mxfile host="app.diagrams.net" modified="2024-03-20T03:37:37.785Z" agent="Mozilla/5.0 (Windows NT 10.0; Win64; x64) AppleWebKit/537.36 (KHTML, like Gecko) Chrome/122.0.0.0 Safari/537.36" etag="Bfsi76wuB1Nt8LrICVkN" version="24.0.7" type="device">
  <diagram name="Page-1" id="f1b7ffb7-ca1e-a977-7cf5-a751b3c06c05">
    <mxGraphModel dx="2607" dy="1342" grid="1" gridSize="10" guides="1" tooltips="1" connect="1" arrows="1" fold="1" page="1" pageScale="1" pageWidth="826" pageHeight="1169" background="none" math="0" shadow="0">
      <root>
        <mxCell id="0" />
        <mxCell id="1" parent="0" />
        <mxCell id="6ZBU6IbNx-Afql_snDbs-145" value="" style="rounded=1;whiteSpace=wrap;html=1;arcSize=8;" vertex="1" parent="1">
          <mxGeometry x="10" y="10" width="820" height="1150" as="geometry" />
        </mxCell>
        <mxCell id="6ZBU6IbNx-Afql_snDbs-146" value="&lt;font style=&quot;font-size: 24px;&quot;&gt;white filled with black outline and text&lt;/font&gt;" style="text;strokeColor=none;align=center;fillColor=none;html=1;verticalAlign=middle;whiteSpace=wrap;rounded=0;" vertex="1" parent="1">
          <mxGeometry x="1100" y="400" width="240" height="30" as="geometry" />
        </mxCell>
        <mxCell id="6ZBU6IbNx-Afql_snDbs-147" style="edgeStyle=orthogonalEdgeStyle;rounded=0;orthogonalLoop=1;jettySize=auto;html=1;exitX=1;exitY=0.5;exitDx=0;exitDy=0;" edge="1" parent="1" source="6ZBU6IbNx-Afql_snDbs-148">
          <mxGeometry relative="1" as="geometry">
            <mxPoint x="1110" y="430" as="targetPoint" />
          </mxGeometry>
        </mxCell>
        <mxCell id="6ZBU6IbNx-Afql_snDbs-148" value="Password input" style="rounded=1;whiteSpace=wrap;html=1;fontSize=24;" vertex="1" parent="1">
          <mxGeometry x="170" y="740" width="510" height="60" as="geometry" />
        </mxCell>
        <mxCell id="6ZBU6IbNx-Afql_snDbs-149" style="edgeStyle=orthogonalEdgeStyle;rounded=0;orthogonalLoop=1;jettySize=auto;html=1;exitX=1;exitY=0.5;exitDx=0;exitDy=0;" edge="1" parent="1" source="6ZBU6IbNx-Afql_snDbs-150">
          <mxGeometry relative="1" as="geometry">
            <mxPoint x="1110" y="410" as="targetPoint" />
          </mxGeometry>
        </mxCell>
        <mxCell id="6ZBU6IbNx-Afql_snDbs-150" value="Email input" style="rounded=1;whiteSpace=wrap;html=1;fontSize=24;" vertex="1" parent="1">
          <mxGeometry x="167" y="650" width="510" height="60" as="geometry" />
        </mxCell>
        <mxCell id="6ZBU6IbNx-Afql_snDbs-151" style="edgeStyle=orthogonalEdgeStyle;rounded=0;orthogonalLoop=1;jettySize=auto;html=1;exitX=1;exitY=0.5;exitDx=0;exitDy=0;" edge="1" parent="1" source="6ZBU6IbNx-Afql_snDbs-152">
          <mxGeometry relative="1" as="geometry">
            <mxPoint x="960" y="89.81818181818176" as="targetPoint" />
          </mxGeometry>
        </mxCell>
        <mxCell id="6ZBU6IbNx-Afql_snDbs-152" value="IMG BTN&lt;div&gt;Logo&lt;/div&gt;" style="rounded=1;whiteSpace=wrap;html=1;" vertex="1" parent="1">
          <mxGeometry x="50" y="40" width="180" height="100" as="geometry" />
        </mxCell>
        <mxCell id="6ZBU6IbNx-Afql_snDbs-153" value="&lt;font style=&quot;font-size: 24px;&quot;&gt;Goes to home page through logo click&amp;nbsp;&lt;/font&gt;" style="text;html=1;align=center;verticalAlign=middle;whiteSpace=wrap;rounded=0;" vertex="1" parent="1">
          <mxGeometry x="1029" y="75" width="220" height="30" as="geometry" />
        </mxCell>
        <mxCell id="6ZBU6IbNx-Afql_snDbs-154" style="edgeStyle=orthogonalEdgeStyle;rounded=0;orthogonalLoop=1;jettySize=auto;html=1;exitX=1;exitY=0.5;exitDx=0;exitDy=0;" edge="1" parent="1" source="6ZBU6IbNx-Afql_snDbs-155">
          <mxGeometry relative="1" as="geometry">
            <mxPoint x="1270.0000000000005" y="550" as="targetPoint" />
          </mxGeometry>
        </mxCell>
        <mxCell id="6ZBU6IbNx-Afql_snDbs-155" value="&lt;font style=&quot;font-size: 24px;&quot;&gt;Login Instead Btn&lt;/font&gt;" style="rounded=1;whiteSpace=wrap;html=1;" vertex="1" parent="1">
          <mxGeometry x="80" y="1050" width="680" height="60" as="geometry" />
        </mxCell>
        <mxCell id="6ZBU6IbNx-Afql_snDbs-156" value="&lt;font style=&quot;font-size: 24px;&quot;&gt;light Orange with white text button&lt;/font&gt;" style="text;strokeColor=none;align=center;fillColor=none;html=1;verticalAlign=middle;whiteSpace=wrap;rounded=0;" vertex="1" parent="1">
          <mxGeometry x="1190" y="510" width="210" height="30" as="geometry" />
        </mxCell>
        <mxCell id="6ZBU6IbNx-Afql_snDbs-157" style="edgeStyle=orthogonalEdgeStyle;rounded=0;orthogonalLoop=1;jettySize=auto;html=1;exitX=0.5;exitY=0;exitDx=0;exitDy=0;entryX=0.5;entryY=0;entryDx=0;entryDy=0;" edge="1" parent="1" source="6ZBU6IbNx-Afql_snDbs-158" target="6ZBU6IbNx-Afql_snDbs-146">
          <mxGeometry relative="1" as="geometry" />
        </mxCell>
        <mxCell id="6ZBU6IbNx-Afql_snDbs-158" value="User btn" style="rounded=1;whiteSpace=wrap;html=1;fontSize=24;" vertex="1" parent="1">
          <mxGeometry x="167" y="364.5" width="130" height="60" as="geometry" />
        </mxCell>
        <mxCell id="6ZBU6IbNx-Afql_snDbs-159" style="edgeStyle=orthogonalEdgeStyle;rounded=0;orthogonalLoop=1;jettySize=auto;html=1;exitX=0.75;exitY=0;exitDx=0;exitDy=0;entryX=0.25;entryY=0;entryDx=0;entryDy=0;" edge="1" parent="1" source="6ZBU6IbNx-Afql_snDbs-160" target="6ZBU6IbNx-Afql_snDbs-146">
          <mxGeometry relative="1" as="geometry" />
        </mxCell>
        <mxCell id="6ZBU6IbNx-Afql_snDbs-160" value="Supplier btn" style="rounded=1;whiteSpace=wrap;html=1;fontSize=24;" vertex="1" parent="1">
          <mxGeometry x="357" y="364.5" width="130" height="60" as="geometry" />
        </mxCell>
        <mxCell id="6ZBU6IbNx-Afql_snDbs-161" style="edgeStyle=orthogonalEdgeStyle;rounded=0;orthogonalLoop=1;jettySize=auto;html=1;exitX=1;exitY=0.5;exitDx=0;exitDy=0;entryX=0;entryY=0.5;entryDx=0;entryDy=0;" edge="1" parent="1" source="6ZBU6IbNx-Afql_snDbs-162" target="6ZBU6IbNx-Afql_snDbs-146">
          <mxGeometry relative="1" as="geometry" />
        </mxCell>
        <mxCell id="6ZBU6IbNx-Afql_snDbs-162" value="Admin btn" style="rounded=1;whiteSpace=wrap;html=1;fontSize=24;" vertex="1" parent="1">
          <mxGeometry x="547" y="364.5" width="130" height="60" as="geometry" />
        </mxCell>
        <mxCell id="6ZBU6IbNx-Afql_snDbs-163" style="edgeStyle=orthogonalEdgeStyle;rounded=0;orthogonalLoop=1;jettySize=auto;html=1;exitX=1;exitY=0;exitDx=0;exitDy=0;" edge="1" parent="1" source="6ZBU6IbNx-Afql_snDbs-164">
          <mxGeometry relative="1" as="geometry">
            <mxPoint x="1110" y="420" as="targetPoint" />
          </mxGeometry>
        </mxCell>
        <mxCell id="6ZBU6IbNx-Afql_snDbs-164" value="First Name" style="rounded=1;whiteSpace=wrap;html=1;fontSize=24;" vertex="1" parent="1">
          <mxGeometry x="167" y="464.5" width="225" height="60" as="geometry" />
        </mxCell>
        <mxCell id="6ZBU6IbNx-Afql_snDbs-165" style="edgeStyle=orthogonalEdgeStyle;rounded=0;orthogonalLoop=1;jettySize=auto;html=1;exitX=1;exitY=0.25;exitDx=0;exitDy=0;entryX=0;entryY=1;entryDx=0;entryDy=0;" edge="1" parent="1" source="6ZBU6IbNx-Afql_snDbs-166" target="6ZBU6IbNx-Afql_snDbs-146">
          <mxGeometry relative="1" as="geometry" />
        </mxCell>
        <mxCell id="6ZBU6IbNx-Afql_snDbs-166" value="Last Name" style="rounded=1;whiteSpace=wrap;html=1;fontSize=24;" vertex="1" parent="1">
          <mxGeometry x="452" y="464.5" width="225" height="60" as="geometry" />
        </mxCell>
        <mxCell id="6ZBU6IbNx-Afql_snDbs-167" style="edgeStyle=orthogonalEdgeStyle;rounded=0;orthogonalLoop=1;jettySize=auto;html=1;exitX=1;exitY=0.5;exitDx=0;exitDy=0;entryX=0.25;entryY=1;entryDx=0;entryDy=0;" edge="1" parent="1" source="6ZBU6IbNx-Afql_snDbs-168" target="6ZBU6IbNx-Afql_snDbs-156">
          <mxGeometry relative="1" as="geometry" />
        </mxCell>
        <mxCell id="6ZBU6IbNx-Afql_snDbs-168" value="&lt;span style=&quot;font-size: 24px;&quot;&gt;Register Btn&lt;/span&gt;" style="rounded=1;whiteSpace=wrap;html=1;" vertex="1" parent="1">
          <mxGeometry x="321" y="840" width="208" height="70" as="geometry" />
        </mxCell>
        <mxCell id="6ZBU6IbNx-Afql_snDbs-169" value="&lt;font style=&quot;font-size: 24px;&quot;&gt;&amp;nbsp;Background color&amp;nbsp;#CCE8EE (extremely Light blue)&lt;/font&gt;" style="text;strokeColor=none;align=center;fillColor=none;html=1;verticalAlign=middle;whiteSpace=wrap;rounded=0;" vertex="1" parent="1">
          <mxGeometry x="1340" y="250" width="240" height="130" as="geometry" />
        </mxCell>
        <mxCell id="6ZBU6IbNx-Afql_snDbs-170" value="&lt;font style=&quot;font-size: 24px;&quot;&gt;All text is Font&amp;nbsp;&lt;/font&gt;&lt;div&gt;&lt;font style=&quot;&quot;&gt;&lt;font style=&quot;font-size: 24px;&quot;&gt;Montserrat&lt;/font&gt;&lt;br&gt;&lt;/font&gt;&lt;/div&gt;" style="text;strokeColor=none;align=center;fillColor=none;html=1;verticalAlign=middle;whiteSpace=wrap;rounded=0;" vertex="1" parent="1">
          <mxGeometry x="1340" y="170" width="240" height="90" as="geometry" />
        </mxCell>
        <mxCell id="6ZBU6IbNx-Afql_snDbs-171" value="&amp;nbsp;Admin Keyinput" style="rounded=1;whiteSpace=wrap;html=1;fontSize=24;" vertex="1" parent="1">
          <mxGeometry x="170" y="560" width="510" height="60" as="geometry" />
        </mxCell>
        <mxCell id="6ZBU6IbNx-Afql_snDbs-172" style="edgeStyle=orthogonalEdgeStyle;rounded=0;orthogonalLoop=1;jettySize=auto;html=1;exitX=1;exitY=0.5;exitDx=0;exitDy=0;entryX=0.196;entryY=1.167;entryDx=0;entryDy=0;entryPerimeter=0;" edge="1" parent="1" source="6ZBU6IbNx-Afql_snDbs-171" target="6ZBU6IbNx-Afql_snDbs-146">
          <mxGeometry relative="1" as="geometry" />
        </mxCell>
      </root>
    </mxGraphModel>
  </diagram>
</mxfile>
